<svg width="330" height="95" viewBox="0 0 330 95" fill="none" xmlns="http://www.w3.org/2000/svg">
<path d="M67.8 70.3C64.4 70.3 61.4667 69.5667 59 68.1C56.6 66.6333 54.4 64.7333 52.4 62.4C50.4667 60 48.5 57.5333 46.5 55C44.5 52.3333 42.5667 49.7667 40.7 47.3C38.9 44.8333 36.8 42.8333 34.4 41.3C32 39.7 28.9 38.9 25.1 38.9H21.5V60.2C21.5 62.2667 21.8667 63.6333 22.6 64.3C23.4 64.9667 25.1667 65.5667 27.9 66.1L34 67.2V69H2.83122e-07V67.2L6.1 66.1C8.83333 65.5667 10.5667 64.9667 11.3 64.3C12.1 63.6333 12.5 62.2667 12.5 60.2V10.5C12.5 8.36666 12.1 6.96666 11.3 6.3C10.5667 5.63333 8.83333 5.06666 6.1 4.59999L2.83122e-07 3.5V1.7H28C37 1.7 43.9333 3.4 48.8 6.8C53.6667 10.1333 56.1 14.6333 56.1 20.3C56.1 23.3667 55.2667 26.1 53.6 28.5C51.9333 30.8333 49.7 32.7333 46.9 34.2C44.1667 35.6 41.1667 36.5 37.9 36.9V37.2C40.9667 37.2 43.5667 38 45.7 39.6C47.8333 41.1333 49.7333 43.1 51.4 45.5C53.1333 47.9 54.9 50.4333 56.7 53.1C58.4333 55.5667 60.1667 57.9333 61.9 60.2C63.6333 62.4 65.4 64.2 67.2 65.6C69.0667 67 70.9667 67.7 72.9 67.7V69.5C71.3 70.0333 69.6 70.3 67.8 70.3ZM21.5 36.1H28C31.9333 36.1 35.2333 35.4667 37.9 34.2C40.6333 32.9333 42.7 31.1667 44.1 28.9C45.5667 26.5667 46.3 23.8333 46.3 20.7C46.3 15.2333 44.5333 11.1 41 8.29999C37.5333 5.43333 32.7667 4 26.7 4H21.5V36.1ZM89.7766 69.7C87.7766 69.7 85.8766 69.0667 84.0766 67.8C82.2766 66.5333 80.8099 64.9 79.6766 62.9C78.5432 60.8333 77.9766 58.7333 77.9766 56.6C77.9766 55.4667 78.0766 54.6667 78.2766 54.2C78.5432 53.7333 78.9099 53.4 79.3766 53.2L98.4766 46.3C100.077 45.7 101.177 45.0333 101.777 44.3C102.377 43.5 102.677 42.4333 102.677 41.1V39.3C102.677 36.2333 101.943 33.5667 100.477 31.3C99.0099 29.0333 96.7432 27.9 93.6766 27.9C91.6766 27.9 90.0099 28.3667 88.6766 29.3C87.4099 30.2333 86.7766 31.5 86.7766 33.1C86.7766 33.5 86.8766 33.9 87.0766 34.3C87.2766 34.6333 87.5099 34.9667 87.7766 35.3C88.1766 35.8333 88.5099 36.4 88.7766 37C89.0432 37.6 89.1766 38.2333 89.1766 38.9C89.1766 40.1667 88.7099 41.2 87.7766 42C86.9099 42.7333 85.8099 43.1 84.4766 43.1C83.0099 43.1 81.8432 42.6667 80.9766 41.8C80.1766 40.8667 79.7766 39.5667 79.7766 37.9C79.7766 35.6333 80.5099 33.5667 81.9766 31.7C83.5099 29.8333 85.4766 28.3667 87.8766 27.3C90.2766 26.1667 92.7432 25.6 95.2766 25.6C98.4766 25.6 101.11 26.2333 103.177 27.5C105.31 28.7667 106.877 30.4333 107.877 32.5C108.943 34.5667 109.477 36.8333 109.477 39.3V60.3C109.477 61.7 109.61 62.9 109.877 63.9C110.21 64.8333 111.043 65.3 112.377 65.3C113.843 65.3 115.41 64.9667 117.077 64.3V65.8C115.81 66.6 114.21 67.4667 112.277 68.4C110.41 69.2667 108.877 69.7 107.677 69.7C106.21 69.7 105.11 69.3333 104.377 68.6C103.71 67.8 103.277 66.8333 103.077 65.7C102.877 64.5 102.777 63.3 102.777 62.1V60.9L103.777 62.3C102.443 63.3667 100.977 64.4667 99.3766 65.6C97.7766 66.7333 96.1432 67.7 94.4766 68.5C92.8766 69.3 91.3099 69.7 89.7766 69.7ZM92.5766 64.9C93.9099 64.9 95.2766 64.5667 96.6766 63.9C98.1432 63.2333 99.6099 62.3667 101.077 61.3C102.21 60.3667 102.777 59.0667 102.777 57.4V48.2C102.777 48 102.677 47.8333 102.477 47.7C102.343 47.5667 102.177 47.5667 101.977 47.7L86.2766 53.6C85.8766 53.7333 85.5766 54.0667 85.3766 54.6C85.2432 55.0667 85.1766 55.8333 85.1766 56.9C85.1766 58.1667 85.5766 59.4333 86.3766 60.7C87.1766 61.9 88.1432 62.9 89.2766 63.7C90.4766 64.5 91.5766 64.9 92.5766 64.9ZM123.331 94.9C121.931 94.9 120.698 94.4667 119.631 93.6C118.565 92.8 118.031 91.6667 118.031 90.2C118.031 88.6 118.498 87.3 119.431 86.3C120.431 85.3667 121.665 84.9 123.131 84.9C123.865 84.9 124.465 85.0333 124.931 85.3C125.465 85.5667 125.931 85.8667 126.331 86.2C126.665 86.4 126.998 86.5667 127.331 86.7C127.665 86.9 127.998 87 128.331 87C129.465 87 130.298 86.2667 130.831 84.8L138.131 66.3L122.431 31.1C122.098 30.3 121.731 29.7333 121.331 29.4C120.931 29.0667 120.265 28.8 119.331 28.6L116.231 27.9V26.4H137.431V27.9L131.831 29.2C130.965 29.4 130.365 29.7 130.031 30.1C129.765 30.4333 129.731 30.8667 129.931 31.4L142.731 60.4H140.431L152.131 30.8C152.265 30.4667 152.231 30.1667 152.031 29.9C151.898 29.6333 151.331 29.3667 150.331 29.1L145.631 27.9V26.4H161.231V27.9L158.031 28.7C157.165 28.9 156.498 29.1667 156.031 29.5C155.631 29.8333 155.265 30.4 154.931 31.2L134.131 84.9C133.531 86.4333 132.798 87.9667 131.931 89.5C131.065 91.0333 129.931 92.3 128.531 93.3C127.198 94.3667 125.465 94.9 123.331 94.9ZM190.523 69.8C185.056 69.8 180.356 69.1 176.423 67.7C172.556 66.2333 169.489 64.9 167.223 63.7C167.756 60.7667 167.989 57.8 167.923 54.8C167.923 51.7333 167.523 48.6333 166.723 45.5H169.623C170.156 49.6333 171.289 53.3667 173.023 56.7C174.823 59.9667 177.223 62.5667 180.223 64.5C183.223 66.4333 186.856 67.4 191.123 67.4C193.989 67.4 196.523 66.8667 198.723 65.8C200.989 64.6667 202.756 63.1333 204.023 61.2C205.356 59.2667 206.023 57.0333 206.023 54.5C206.023 51.9 205.489 49.7667 204.423 48.1C203.423 46.3667 201.623 44.8 199.023 43.4C196.423 41.9333 192.689 40.3667 187.823 38.7C181.889 36.6333 177.289 34.2333 174.023 31.5C170.823 28.7 169.223 24.7333 169.223 19.6C169.223 16.2 170.023 13.0667 171.623 10.2C173.223 7.26666 175.623 4.93333 178.823 3.19999C182.023 1.39999 185.989 0.499994 190.723 0.499994C192.789 0.499994 194.556 0.766661 196.023 1.3C197.489 1.83333 198.856 2.4 200.123 3C201.123 3.46666 202.089 3.9 203.023 4.3C203.956 4.7 204.889 4.9 205.823 4.9L208.323 4.4L208.723 4.7C208.656 5.56666 208.589 6.4 208.523 7.2C208.456 8 208.423 8.8 208.423 9.6C208.423 11 208.489 12.4 208.623 13.8C208.756 15.1333 208.956 16.4667 209.223 17.8C209.489 19.1333 209.789 20.4667 210.123 21.8H207.923C206.589 18.3333 205.156 15.2 203.623 12.4C202.089 9.53333 200.189 7.26666 197.923 5.6C195.723 3.86666 192.889 3 189.423 3C187.223 3 185.156 3.46666 183.223 4.4C181.289 5.33333 179.723 6.7 178.523 8.5C177.323 10.3 176.723 12.5 176.723 15.1C176.723 17.6333 177.156 19.7333 178.023 21.4C178.889 23 180.523 24.4667 182.923 25.8C185.389 27.0667 188.989 28.5333 193.723 30.2C198.656 31.8667 202.556 33.6333 205.423 35.5C208.289 37.3 210.323 39.3667 211.523 41.7C212.789 44.0333 213.423 46.8667 213.423 50.2C213.423 53.8667 212.456 57.2 210.523 60.2C208.589 63.1333 205.889 65.4667 202.423 67.2C199.023 68.9333 195.056 69.8 190.523 69.8ZM236.161 69.8C230.561 69.8 227.761 66.1333 227.761 58.8V29.2H220.961V27.2C224.961 26.2667 227.761 24.7667 229.361 22.7C231.028 20.5667 231.994 17.5 232.261 13.5H234.461V26.4H247.961L246.961 29.2H234.461V57.9C234.461 60.5 234.894 62.3333 235.761 63.4C236.628 64.4667 237.794 65 239.261 65C240.394 65 241.594 64.7667 242.861 64.3C244.194 63.8333 245.594 63.2 247.061 62.4L248.261 64C245.994 65.8667 243.794 67.3 241.661 68.3C239.528 69.3 237.694 69.8 236.161 69.8ZM267.12 69.7C265.12 69.7 263.22 69.0667 261.42 67.8C259.62 66.5333 258.154 64.9 257.02 62.9C255.887 60.8333 255.32 58.7333 255.32 56.6C255.32 55.4667 255.42 54.6667 255.62 54.2C255.887 53.7333 256.254 53.4 256.72 53.2L275.82 46.3C277.42 45.7 278.52 45.0333 279.12 44.3C279.72 43.5 280.02 42.4333 280.02 41.1V39.3C280.02 36.2333 279.287 33.5667 277.82 31.3C276.354 29.0333 274.087 27.9 271.02 27.9C269.02 27.9 267.354 28.3667 266.02 29.3C264.754 30.2333 264.12 31.5 264.12 33.1C264.12 33.5 264.22 33.9 264.42 34.3C264.62 34.6333 264.854 34.9667 265.12 35.3C265.52 35.8333 265.854 36.4 266.12 37C266.387 37.6 266.52 38.2333 266.52 38.9C266.52 40.1667 266.054 41.2 265.12 42C264.254 42.7333 263.154 43.1 261.82 43.1C260.354 43.1 259.187 42.6667 258.32 41.8C257.52 40.8667 257.12 39.5667 257.12 37.9C257.12 35.6333 257.854 33.5667 259.32 31.7C260.854 29.8333 262.82 28.3667 265.22 27.3C267.62 26.1667 270.087 25.6 272.62 25.6C275.82 25.6 278.454 26.2333 280.52 27.5C282.654 28.7667 284.22 30.4333 285.22 32.5C286.287 34.5667 286.82 36.8333 286.82 39.3V60.3C286.82 61.7 286.954 62.9 287.22 63.9C287.554 64.8333 288.387 65.3 289.72 65.3C291.187 65.3 292.754 64.9667 294.42 64.3V65.8C293.154 66.6 291.554 67.4667 289.62 68.4C287.754 69.2667 286.22 69.7 285.02 69.7C283.554 69.7 282.454 69.3333 281.72 68.6C281.054 67.8 280.62 66.8333 280.42 65.7C280.22 64.5 280.12 63.3 280.12 62.1V60.9L281.12 62.3C279.787 63.3667 278.32 64.4667 276.72 65.6C275.12 66.7333 273.487 67.7 271.82 68.5C270.22 69.3 268.654 69.7 267.12 69.7ZM269.92 64.9C271.254 64.9 272.62 64.5667 274.02 63.9C275.487 63.2333 276.954 62.3667 278.42 61.3C279.554 60.3667 280.12 59.0667 280.12 57.4V48.2C280.12 48 280.02 47.8333 279.82 47.7C279.687 47.5667 279.52 47.5667 279.32 47.7L263.62 53.6C263.22 53.7333 262.92 54.0667 262.72 54.6C262.587 55.0667 262.52 55.8333 262.52 56.9C262.52 58.1667 262.92 59.4333 263.72 60.7C264.52 61.9 265.487 62.9 266.62 63.7C267.82 64.5 268.92 64.9 269.92 64.9ZM299.402 69V67.5L303.602 66.4C304.602 66.1333 305.269 65.7667 305.602 65.3C306.002 64.8333 306.202 64.1333 306.202 63.2V35.9C306.202 34.5667 306.036 33.6333 305.702 33.1C305.369 32.5667 304.736 32.1667 303.802 31.9L299.502 30.7V29.7C301.036 29.3667 302.536 29 304.002 28.6C305.536 28.2 307.002 27.7333 308.402 27.2C309.869 26.6667 311.269 26.0333 312.602 25.3L313.502 25.9C313.169 26.7667 312.869 27.7333 312.602 28.8C312.402 29.8 312.302 30.7667 312.302 31.7V32.7L312.902 34.2V63.2C312.902 64.1333 313.069 64.8333 313.402 65.3C313.802 65.7667 314.502 66.1333 315.502 66.4L320.302 67.5V69H299.402ZM312.902 40.8L311.102 32.7L322.702 26.1C323.102 25.9 323.502 25.7667 323.902 25.7C324.369 25.5667 324.802 25.5 325.202 25.5C326.402 25.5 327.469 25.9 328.402 26.7C329.336 27.5 329.802 28.6667 329.802 30.2C329.802 31.4 329.369 32.4667 328.502 33.4C327.636 34.3333 326.436 34.8 324.902 34.8C323.969 34.8 323.202 34.6 322.602 34.2C322.002 33.8 321.469 33.3667 321.002 32.9C320.669 32.5 320.302 32.1333 319.902 31.8C319.569 31.4667 319.169 31.3 318.702 31.3C318.236 31.3 317.536 31.6 316.602 32.2C315.669 32.7333 314.802 33.7 314.002 35.1C313.269 36.5 312.902 38.4 312.902 40.8Z" fill="black"/>
</svg>
